<svg width="1175" height="1200" viewBox="0 0 1175 1200" fill="none" xmlns="http://www.w3.org/2000/svg">
<mask id="mask0_18_3291" style="mask-type:luminance" maskUnits="userSpaceOnUse" x="0" y="0" width="1175" height="1200">
<path d="M1174.77 0.5H0.769043V1199.5H1174.77V0.5Z" fill="white"/>
</mask>
<g mask="url(#mask0_18_3291)">
<path d="M587.279 437.33C677.129 437.33 749.959 510.05 749.949 599.77C749.949 608.37 749.269 616.79 747.989 625.04L1088.94 640.07C1090 626.78 1090.57 613.34 1090.57 599.79C1090.57 576.7 1088.97 553.99 1085.97 531.74L1173.72 471.72C1165.21 432.66 1152.89 395.05 1137.16 359.24L1030.84 362.17C1009.14 321.87 982.099 284.87 950.649 252.11L986.289 152.11C956.809 125.91 924.729 102.54 890.479 82.5001L806.269 147.21C765.769 127.64 722.219 113.32 676.549 105.15L646.549 3.39001C627.039 1.48001 607.289 0.5 587.289 0.5C567.299 0.5 547.539 1.48001 528.039 3.39001L498.009 105.15C452.329 113.32 408.799 127.64 368.269 147.21L284.059 82.5001C249.789 102.55 217.729 125.89 188.249 152.11L223.879 252.11C200.429 276.52 179.429 303.31 161.269 332.06L441.369 527.83C467.949 474.21 523.299 437.35 587.279 437.35V437.33Z" fill="url(#paint0_linear_18_3291)"/>
<path d="M424.579 599.77C424.579 573.94 430.629 549.51 441.369 527.83L161.269 332.06C155.079 341.87 149.199 351.91 143.679 362.15L37.3691 359.22C21.6191 395.02 9.28904 432.64 0.769043 471.69L88.5291 531.71C85.5091 553.96 83.9189 576.67 83.9189 599.76C83.9189 622.84 85.5191 645.54 88.5291 667.8L0.769043 727.82C9.28904 766.88 21.5991 804.5 37.3391 840.3L143.649 837.38C165.349 877.68 192.389 914.68 223.839 947.44L188.209 1047.42C217.679 1073.62 249.759 1096.99 284.009 1117.04L368.219 1052.33C380.709 1058.36 393.479 1063.9 406.529 1068.9L547.639 757.33C476.939 739.66 424.579 675.82 424.579 599.76V599.77Z" fill="url(#paint1_linear_18_3291)"/>
<path d="M1088.94 640.07L747.989 625.04C735.829 702.74 668.509 762.2 587.259 762.2C573.589 762.2 560.329 760.51 547.639 757.33L406.519 1068.9C435.779 1080.15 466.359 1088.75 497.959 1094.41L527.979 1196.18C547.479 1198.09 567.219 1199.08 587.229 1199.08C607.239 1199.08 626.979 1198.09 646.479 1196.18L676.509 1094.42C722.189 1086.26 765.709 1071.94 806.239 1052.36L890.449 1117.07C924.719 1097.02 956.779 1073.67 986.259 1047.46L950.629 947.47C982.079 914.72 1009.12 877.71 1030.84 837.42L1137.16 840.36C1152.89 804.56 1165.23 766.93 1173.74 727.88L1085.98 667.86C1087.24 658.66 1088.22 649.4 1088.97 640.07H1088.94Z" fill="url(#paint2_linear_18_3291)"/>
<path d="M718.459 1004.58C941.589 931.46 1063.21 691.31 990.099 468.17C916.979 245.03 676.829 123.41 453.689 196.53C230.549 269.64 108.929 509.8 182.049 732.94C255.159 956.07 495.319 1077.69 718.459 1004.58Z" fill="#FEFEFE"/>
<path fill-rule="evenodd" clip-rule="evenodd" d="M452.789 188.04C680.339 113.51 925.269 237.54 999.849 465.08C1074.44 692.61 950.429 937.48 722.879 1012.01C495.319 1086.55 250.399 962.51 175.819 734.98C101.229 507.44 225.229 262.57 452.789 188.04ZM455.609 210.72C453.679 211.35 451.769 212.02 449.849 212.69C237.799 285.56 122.839 515.68 192.899 729.42C263.049 943.43 492.389 1060.92 706.679 993.72C600.279 1025.62 487.139 966.91 452.349 860.78C416.999 752.94 475.839 636.75 583.679 601.43C691.519 566.11 750.359 449.92 715.019 342.08C679.669 234.25 563.449 175.39 455.609 210.72Z" fill="black"/>
<path fill-rule="evenodd" clip-rule="evenodd" d="M529.749 338.96C513.179 338.96 499.749 352.4 499.749 368.96V478.97C499.749 495.54 513.179 508.97 529.749 508.97H637.309C653.879 508.97 667.309 495.54 667.309 478.97V368.96C667.309 352.4 653.879 338.96 637.309 338.96H529.749ZM541.899 351.29C525.329 351.29 511.899 364.72 511.899 381.29V466.64C511.899 483.21 525.329 496.64 541.899 496.64H625.159C641.729 496.64 655.159 483.21 655.159 466.64V381.29C655.159 364.72 641.729 351.29 625.159 351.29H541.899Z" fill="black"/>
<path d="M546.369 386.26H620.689V461.67H546.369V386.26Z" fill="black"/>
<path d="M559.194 313.203C559.194 309.661 556.323 306.79 552.781 306.79C549.24 306.79 546.369 309.661 546.369 313.203V342.016C546.369 345.558 549.24 348.429 552.781 348.429C556.323 348.429 559.194 345.558 559.194 342.016V313.203Z" fill="black"/>
<path d="M589.944 313.203C589.944 309.661 587.073 306.79 583.531 306.79C579.99 306.79 577.119 309.661 577.119 313.203V342.016C577.119 345.558 579.99 348.429 583.531 348.429C587.073 348.429 589.944 345.558 589.944 342.016V313.203Z" fill="black"/>
<path d="M620.694 313.203C620.694 309.661 617.823 306.79 614.281 306.79C610.74 306.79 607.869 309.661 607.869 313.203V342.016C607.869 345.558 610.74 348.429 614.281 348.429C617.823 348.429 620.694 345.558 620.694 342.016V313.203Z" fill="black"/>
<path d="M559.194 505.923C559.194 502.381 556.323 499.51 552.781 499.51C549.24 499.51 546.369 502.381 546.369 505.923V534.736C546.369 538.278 549.24 541.149 552.781 541.149C556.323 541.149 559.194 538.278 559.194 534.736V505.923Z" fill="black"/>
<path d="M589.944 505.923C589.944 502.381 587.073 499.51 583.531 499.51C579.99 499.51 577.119 502.381 577.119 505.923V534.736C577.119 538.278 579.99 541.149 583.531 541.149C587.073 541.149 589.944 538.278 589.944 534.736V505.923Z" fill="black"/>
<path d="M620.694 505.923C620.694 502.381 617.823 499.51 614.281 499.51C610.74 499.51 607.869 502.381 607.869 505.923V534.736C607.869 538.278 610.74 541.149 614.281 541.149C617.823 541.149 620.694 538.278 620.694 534.736V505.923Z" fill="black"/>
<path d="M693.713 399.042C697.306 399.042 700.219 396.129 700.219 392.536C700.219 388.943 697.306 386.03 693.713 386.03H665.685C662.092 386.03 659.179 388.943 659.179 392.536C659.179 396.129 662.092 399.042 665.685 399.042H693.713Z" fill="black"/>
<path d="M693.713 430.242C697.306 430.242 700.219 427.329 700.219 423.736C700.219 420.143 697.306 417.23 693.713 417.23H665.685C662.092 417.23 659.179 420.143 659.179 423.736C659.179 427.329 662.092 430.242 665.685 430.242H693.713Z" fill="black"/>
<path d="M693.289 461.597C696.881 461.638 699.827 458.759 699.867 455.166C699.907 451.573 697.026 448.627 693.433 448.586L665.407 448.264C661.814 448.223 658.869 451.102 658.829 454.695C658.789 458.288 661.669 461.234 665.262 461.276L693.289 461.597Z" fill="black"/>
<path d="M502.073 399.512C505.666 399.512 508.579 396.599 508.579 393.006C508.579 389.413 505.666 386.5 502.073 386.5H474.045C470.452 386.5 467.539 389.413 467.539 393.006C467.539 396.599 470.452 399.512 474.045 399.512H502.073Z" fill="black"/>
<path d="M501.793 430.242C505.386 430.242 508.299 427.329 508.299 423.736C508.299 420.143 505.386 417.23 501.793 417.23H473.765C470.172 417.23 467.259 420.143 467.259 423.736C467.259 427.329 470.172 430.242 473.765 430.242H501.793Z" fill="black"/>
<path d="M501.453 461.432C505.046 461.432 507.959 458.519 507.959 454.926C507.959 451.333 505.046 448.42 501.453 448.42H473.425C469.832 448.42 466.919 451.333 466.919 454.926C466.919 458.519 469.832 461.432 473.425 461.432H501.453Z" fill="black"/>
<path d="M540.599 772.77L543.009 736.55C535.939 741.35 529.799 738.3 527.609 736.18L529.049 772.49C533.599 768.19 538.649 770.88 540.599 772.77Z" fill="white"/>
<path d="M535.369 747.41C531.109 747.43 527.639 742.76 527.609 736.98C527.589 731.19 531.009 726.49 535.269 726.47C539.519 726.45 542.989 731.12 543.019 736.9C543.049 742.68 539.619 747.39 535.369 747.41Z" fill="white"/>
<path d="M618.959 898.95C619.319 899.12 619.689 899.05 620.059 899.05C623.709 899.03 627.369 899.07 631.019 898.98C632.999 898.93 634.849 900.51 634.789 902.62C634.689 906.25 634.799 909.89 634.809 913.52C634.819 915.61 633.459 916.95 631.319 916.96C624.999 916.99 618.679 917.02 612.369 917.05C599.069 917.12 585.769 917.18 572.479 917.25C566.849 917.27 561.219 917.22 555.599 917.37C553.789 917.42 551.919 916.04 551.869 913.92C551.799 910.22 551.759 906.51 551.829 902.8C551.859 900.58 553.679 899.35 555.509 899.35C559.059 899.37 562.599 899.33 566.139 899.31C583.279 899.23 600.409 899.15 617.539 899.06C617.939 899.06 618.359 899.13 618.739 898.95" fill="white"/>
<path d="M594.549 728.95L612.929 798.77C603.829 783.75 594.159 802.51 590.459 813.78L589.819 813.27L593.119 732.67L594.549 728.95Z" fill="white"/>
<path d="M592.359 734.32C592.719 733.38 592.529 732.77 592.379 732.08C590.749 724.6 593.809 713.99 598.769 709C601.039 708.25 599.639 708.61 603.669 708.24C606.109 708.23 607.169 708.08 608.119 708.96C610.039 712 610.509 713.81 610.079 719.53C609.909 721.79 610.429 723.43 610.459 725.54C610.529 731.94 610.889 738.16 611.089 744.49C611.399 754.02 611.649 763.59 611.949 773.13C612.089 777.61 612.299 782.05 612.449 786.53C612.589 790.93 612.689 795.37 612.809 799.78C612.829 800.26 612.819 800.7 612.589 801.18" fill="white"/>
<path d="M611.159 907.67L590.569 831.76C600.519 849.01 610.679 831.23 614.509 820.17L615.199 820.82L612.639 904.05L611.159 907.67Z" fill="white"/>
<path d="M611.159 907.67L590.569 831.76C600.519 849.01 610.679 831.23 614.509 820.17L615.199 820.82L612.639 904.05L611.159 907.67Z" fill="white"/>
<path d="M611.529 886.19C611.129 887.16 611.329 887.84 611.489 888.61C613.209 896.95 609.809 908.02 604.389 912.72C602.549 914.32 600.739 914.9 598.979 915.27C597.619 915.56 596.459 914.32 595.439 913.23C592.799 910.42 591.669 905.85 592.169 899.71C592.369 897.28 591.809 895.43 591.799 893.14C591.759 886.19 591.409 879.39 591.229 872.51C590.959 862.13 590.759 851.73 590.499 841.35C590.369 836.46 590.169 831.63 590.039 826.75C589.909 821.95 589.829 817.13 589.729 812.33C589.719 811.81 589.729 811.33 589.979 810.85" fill="white"/>
<path d="M615.029 817.96C614.799 828.2 614.339 838.48 614.049 848.74C613.809 857.5 613.469 866.29 613.149 875.08C612.889 882.27 612.479 889.49 612.569 896.61C612.579 897.39 612.149 898.22 612.359 899.02" stroke="black" stroke-linecap="round" stroke-linejoin="round"/>
<path d="M590.069 821.41C590.489 831.22 590.719 841.09 591.089 850.91C591.409 859.31 591.649 867.75 591.909 876.17C592.109 883.07 592.189 890 592.709 896.8C592.769 897.55 592.419 898.38 592.669 899.13" stroke="black" stroke-linecap="round" stroke-linejoin="round"/>
<path d="M614.259 818.55C614.029 819.53 613.899 820.59 613.719 821.59C612.229 829.78 609.599 835.3 605.409 837.71C600.559 840.5 594.689 835.06 592.479 826.32C592.439 826.14 592.329 826.04 592.279 825.88C590.569 821.07 590.699 815.54 590.969 810.13C591.249 804.67 592.509 800.01 594.459 796.34C597.119 791.33 600.259 788.93 603.899 789.94C604.819 790.2 605.729 790.8 606.649 791.21C609.329 792.41 610.839 796.86 612.319 800.91C613.619 804.46 614.189 808.93 614.239 813.51C614.259 815.12 614.319 816.72 614.359 818.33" fill="white"/>
<path d="M614.459 818.55C614.239 819.53 614.109 820.59 613.919 821.59C612.419 829.78 609.759 835.3 605.529 837.71C600.639 840.5 594.729 835.06 592.499 826.32C592.449 826.14 592.349 826.04 592.289 825.87C590.569 821.07 590.689 815.54 590.969 810.13C591.249 804.67 592.529 800.01 594.489 796.34C597.179 791.33 600.339 788.93 604.009 789.94C604.949 790.2 605.859 790.8 606.789 791.21C609.499 792.41 611.019 796.85 612.509 800.91C613.819 804.46 614.389 808.92 614.439 813.51C614.459 815.12 614.529 816.72 614.569 818.33" stroke="black" stroke-width="2" stroke-linecap="round" stroke-linejoin="round"/>
<path d="M535.019 781.84C531.879 785.11 528.289 787.99 524.889 791.04C524.149 791.7 523.739 792.32 523.819 793.41C524.129 797.63 524.229 801.86 524.369 806.09C524.419 807.52 524.379 807.52 522.769 807.54C521.929 807.54 521.089 807.54 520.169 807.55C519.989 804.72 519.809 802.01 519.629 799.31C519.469 796.74 519.309 794.17 519.149 791.59C519.129 791.18 519.199 790.86 519.579 790.53C523.799 786.83 527.999 783.09 532.209 779.37" stroke="white" stroke-width="4" stroke-linecap="round" stroke-linejoin="round"/>
<path d="M534.649 781.27C538.209 784.12 541.749 786.99 545.339 789.8C546.209 790.48 546.569 791.14 546.559 792.24C546.519 795.86 546.719 799.48 546.829 803.09C546.829 803.14 546.839 803.18 546.839 803.23C546.989 806.58 546.989 806.58 551.099 805.84C551.099 803.11 551.089 800.36 551.089 797.6C551.099 795.29 551.149 792.97 551.119 790.66C551.109 790.08 551.269 789.48 550.609 788.97C546.149 785.55 541.739 782.08 537.309 778.63" stroke="white" stroke-width="4" stroke-linecap="round" stroke-linejoin="round"/>
<path d="M543.749 758.85C542.109 759.46 538.049 761.23 536.389 761.41C532.859 761.81 529.749 761.44 528.559 758.92" stroke="black" stroke-linecap="round" stroke-linejoin="round"/>
<path d="M528.839 774.29C529.749 773.75 530.259 772.88 531.139 772.27C533.609 770.54 537.779 771.12 539.779 773.42C542.679 776.75 540.339 780.22 537.849 781.81C536.229 782.85 532.509 782.37 530.919 781.23C528.369 779.39 528.139 777.02 528.689 774.42" fill="white"/>
<path d="M529.039 774.29C529.949 773.75 530.459 772.88 531.339 772.26C533.809 770.54 537.969 771.12 539.979 773.42C542.869 776.75 540.529 780.22 538.049 781.81C536.429 782.85 532.699 782.37 531.119 781.23C528.569 779.39 528.339 777.02 528.889 774.42" stroke="black" stroke-linecap="round" stroke-linejoin="round"/>
<path d="M527.619 738.97C527.989 739.46 528.449 739.86 528.719 740.47C531.739 747.39 538.829 747.25 541.939 740.61C542.249 739.96 542.519 739.24 543.029 738.89" stroke="black" stroke-width="2" stroke-linecap="round" stroke-linejoin="round"/>
<path d="M587.959 718.77C588.469 719.05 589.109 719.28 589.469 719.63C593.629 723.57 603.439 723.46 607.769 719.65C608.199 719.28 608.579 718.87 609.289 718.67" stroke="black" stroke-width="2" stroke-linecap="round" stroke-linejoin="round"/>
<path d="M558.529 908.17C558.109 912.14 560.499 914.07 562.739 913.32" stroke="black" stroke-width="2" stroke-linecap="round" stroke-linejoin="round"/>
<path d="M624.329 903.71C624.849 902.29 625.539 903.43 626.099 903.54C628.159 903.92 629.059 905.79 628.989 909.23" stroke="black" stroke-width="2" stroke-linecap="round" stroke-linejoin="round"/>
<path d="M622.819 907.21C625.159 907.2 625.689 907.91 625.839 911.25" stroke="black" stroke-linecap="round" stroke-linejoin="round"/>
<path d="M561.159 904.1C561.169 907.4 561.749 908.14 564.269 908.13" stroke="black" stroke-linecap="round" stroke-linejoin="round"/>
<path d="M589.989 821.39C590.369 820.42 591.989 731.54 591.979 730.1C590.359 722.42 593.549 711.49 598.629 706.33C600.359 704.58 602.049 703.8 603.709 703.21C604.989 702.76 606.069 703.79 607.029 704.69C609.509 707.01 610.569 711.2 610.099 717.08C609.919 719.41 610.439 721.09 610.449 723.26C610.489 729.83 610.819 736.23 610.989 742.73C611.239 752.53 611.429 762.37 611.679 772.17C611.799 776.78 611.989 781.33 612.109 785.94C612.229 790.47 612.299 795.03 612.399 799.57C612.419 800.05 612.399 800.51 612.169 801" stroke="black" stroke-linecap="round" stroke-linejoin="round"/>
<path d="M535.389 725.95L599.219 708.49C599.509 710.09 594.839 717.57 592.479 721.1L570.319 730.37L542.969 738.85C543.749 730.41 538.239 726.74 535.389 725.95Z" fill="white" stroke="black"/>
</g>
<defs>
<linearGradient id="paint0_linear_18_3291" x1="224.379" y1="285.13" x2="1051.17" y2="641.03" gradientUnits="userSpaceOnUse">
<stop offset="0.8" stop-color="#FFD93C"/>
</linearGradient>
<linearGradient id="paint1_linear_18_3291" x1="274.209" y1="332.06" x2="274.209" y2="1117.04" gradientUnits="userSpaceOnUse">
<stop stop-color="#4AB1B6"/>
</linearGradient>
<linearGradient id="paint2_linear_18_3291" x1="462.509" y1="1054.7" x2="1063.46" y2="624.13" gradientUnits="userSpaceOnUse">
<stop offset="0.6" stop-color="#D43339"/>
</linearGradient>
</defs>
</svg>
